<?xml version="1.0" encoding="UTF-8"?>
<svg width="100" height="200" version="1.1" viewBox="0 0 26.458 52.917" xmlns="http://www.w3.org/2000/svg">
  <g fill="none" stroke="#000" stroke-width="1px">
    <path id="a1" d="m 7.1804 7.0976 h 6.8725"/>
    <path id="a2" d="m 16.616 7.0976 h 6.8725"/>
    <path id="b" d="m 24.659 8.3608 -1.4296 16.254"/>
    <path id="c" d="m 23 27.233 -1.4296 16.254"/>
    <path id="d1" d="m 3.8687 44.75 h 6.8725"/>
    <path id="d2" d="m 13.305 44.75 h 6.8725"/>
    <path id="e" d="m 4.1277 27.233 -1.4296 16.254"/>
    <path id="f" d="m 5.7876 8.3608 -1.4296 16.254"/>
    <path id="g1" d="m 5.5246 25.924 h 6.8725"/>
    <path id="g2" d="m 14.961 25.924 h 6.8725"/>
    <path id="h" d="m 7.6632 8.9757 3.9756 15.504"/>
    <path id="i" d="m 15.224 8.3608-1.4296 16.254"/>
    <path id="j" d="m 22.676 8.9757-6.7029 15.504"/>
    <path id="k" d="m 4.6819 42.871 6.7029 -15.504"/>
    <path id="l" d="m 13.564 27.233-1.4296 16.254"/>
    <path id="m" d="m 19.694 42.871-3.9756 -15.504"/>
    <path id="dp" d="m 23.032 45.393 0.09225 -1.0489"/>
  </g>
</svg>
