<?xml version="1.0" encoding="UTF-8" standalone="no"?>
<!-- Created with Inkscape (http://www.inkscape.org/) -->

<svg
   sodipodi:docname="Nixie.svg"
   inkscape:version="1.2.1 (9c6d41e410, 2022-07-14)"
   xml:space="preserve"
   id="svg5"
   version="1.1"
   viewBox="0 0 26.458333 52.916666"
   height="200"
   width="100"
   xmlns:inkscape="http://www.inkscape.org/namespaces/inkscape"
   xmlns:sodipodi="http://sodipodi.sourceforge.net/DTD/sodipodi-0.dtd"
   xmlns="http://www.w3.org/2000/svg"
   xmlns:svg="http://www.w3.org/2000/svg"><sodipodi:namedview
     id="namedview7"
     pagecolor="#505050"
     bordercolor="#eeeeee"
     borderopacity="1"
     inkscape:showpageshadow="0"
     inkscape:pageopacity="0"
     inkscape:pagecheckerboard="0"
     inkscape:deskcolor="#505050"
     inkscape:document-units="mm"
     showgrid="false"
     inkscape:zoom="3.5705387"
     inkscape:cx="-24.786176"
     inkscape:cy="135.55378"
     inkscape:window-width="2560"
     inkscape:window-height="1387"
     inkscape:window-x="1912"
     inkscape:window-y="892"
     inkscape:window-maximized="1"
     inkscape:current-layer="g1174" /><defs
     id="defs2" /><g
     inkscape:label="Layer 1"
     inkscape:groupmode="layer"
     id="layer1"
     transform="translate(-216.87285,42.887155)"
     style="display:inline"><path
       id="path575"
       style="display:inline;fill:none;stroke:#000000;stroke-width:0.497568;stroke-linecap:round;paint-order:stroke fill markers"
       d="m 242.32934,-16.428802 c 0,15.1216152 -5.47436,26.0383691 -12.22732,26.0383715 -7.93859,2.8e-6 -12.22732,-11.6577743 -12.22732,-26.0383715 0,-15.418023 5.47436,-26.038375 12.22732,-26.038373 7.41988,-3e-6 12.22732,11.657775 12.22732,26.038373 z"
       inkscape:label="0"
       sodipodi:nodetypes="ssscs" /><path
       style="display:inline;fill:none;stroke:#000000;stroke-width:0.499999;stroke-linecap:round;stroke-opacity:1;paint-order:stroke fill markers"
       d="m 220.77,-31.6883 c 0,-11.198855 21.528,-17.800194 21.528,1.943 -0.29676,13.177355 -24.393,31.0573519 -24.393,39.5334898 1.36234,0 24.393,0 24.393,0"
       id="path4292"
       sodipodi:nodetypes="cccc"
       inkscape:label="2" /><path
       style="display:inline;fill:none;stroke:#000000;stroke-width:0.499999;stroke-linecap:round;stroke-opacity:1;paint-order:stroke fill markers"
       d="m 220.491,-42.2997 h 21.521 l -16.96,22.0829 c 9.19815,0 17.482,2.432878 17.482,14.15674 0,8.4410566 -13.21795,26.022723 -24.893,7.2659604"
       id="path4295"
       sodipodi:nodetypes="cccsc"
       inkscape:label="3" /><path
       style="display:inline;fill:none;stroke:#000000;stroke-width:0.499999;stroke-linecap:round;stroke-opacity:1;paint-order:stroke fill markers"
       d="m 238.766,-42.3117 h -15.323 l -1.916,19.3409 c 12.20871,-6.549735 20.39,1.454023 20.39,17.59655 0,16.142525 -18.99172,21.409729 -23.631,4.0956891"
       id="path4298"
       sodipodi:nodetypes="cccsc"
       inkscape:label="5" /><g
       id="g1132"
       transform="matrix(0.93661835,0,0,0.96428721,129.81103,-183.57308)"
       style="display:inline;stroke-width:0.493929;stroke-dasharray:none"
       inkscape:label="6"><path
         id="path4301"
         style="display:inline;fill:none;stroke:#000000;stroke-width:0.523562;stroke-linecap:round;paint-order:stroke fill markers"
         d="m 120.1325,186.01997 c 0,8.31467 -5.84482,14.31728 -13.05476,14.31729 -8.475795,0 -13.054747,-6.41007 -13.054747,-14.31729 0,-8.47766 5.844814,-14.31729 13.054747,-14.31729 7.92199,-10e-6 13.05476,6.41006 13.05476,14.31729 z"
         inkscape:label="6_1"
         sodipodi:nodetypes="ssscs" /><path
         style="fill:none;stroke:#000000;stroke-width:0.52612;stroke-linecap:round;stroke-opacity:1;paint-order:stroke fill markers"
         d="m 94.022993,186.01997 c 0,-13.49783 10.567447,-34.51684 15.574007,-39.52097"
         id="path4305"
         inkscape:label="6_2" /></g><g
       id="g1156"
       transform="matrix(0.94370315,0,0,0.9715813,7.9437381,-184.9009)"
       style="display:inline;stroke-width:0.490221;stroke-dasharray:none"
       inkscape:label="8"><path
         id="path575-5"
         style="display:inline;fill:none;stroke:#000000;stroke-width:0.519631;stroke-linecap:round;paint-order:stroke fill markers"
         d="m 246.607,157.88911 c 0,6.55614 -5.01253,11.28921 -11.1958,11.28921 -7.26887,10e-6 -11.19579,-5.05435 -11.19579,-11.28921 0,-6.68464 5.01253,-11.28921 11.19579,-11.28921 6.79393,0 11.1958,5.05436 11.1958,11.28921 z"
         inkscape:label="0"
         sodipodi:nodetypes="ssscs" /><path
         id="path4350"
         style="display:inline;fill:none;stroke:#000000;stroke-width:0.519631;stroke-linecap:round;paint-order:stroke fill markers"
         d="m 247.70147,184.6891 c 0,9.00779 -5.50255,15.51079 -12.29027,15.51079 -7.97946,0 -12.29026,-6.94441 -12.29026,-15.51079 0,-9.18436 5.50254,-15.51079 12.29026,-15.51079 7.45808,0 12.29027,6.94442 12.29027,15.51079 z"
         inkscape:label="0"
         sodipodi:nodetypes="ssscs" /></g><g
       id="g4322"
       transform="matrix(-0.93661836,0,0,-0.96428721,330.393,150.87669)"
       style="display:inline;stroke-width:0.493929;stroke-dasharray:none"
       inkscape:label="9"><path
         id="path4318"
         style="display:inline;fill:none;stroke:#000000;stroke-width:0.523562;stroke-linecap:round;paint-order:stroke fill markers"
         d="m 120.1325,186.01997 c 0,8.31467 -5.84482,14.31728 -13.05476,14.31729 -8.475795,0 -13.054747,-6.41007 -13.054747,-14.31729 0,-8.47766 5.844814,-14.31729 13.054747,-14.31729 7.92199,-10e-6 13.05476,6.41006 13.05476,14.31729 z"
         inkscape:label="6_1"
         sodipodi:nodetypes="ssscs" /><path
         style="fill:none;stroke:#000000;stroke-width:0.52612;stroke-linecap:round;stroke-opacity:1;paint-order:stroke fill markers"
         d="m 94.022993,186.01997 c 0,-13.49783 10.567447,-34.51684 15.574007,-39.52097"
         id="path4320"
         inkscape:label="6_2" /></g><path
       id="path4361"
       style="display:inline;stroke-width:0.532586;stroke-dasharray:none;fill:none;stroke:#000000;stroke-linecap:round;paint-order:stroke fill markers"
       d="m 523.59501,12.467272 c 0,1.39261 -1.03726,2.380688 -2.45102,2.380688 -1.42374,0 -2.45101,-1.065872 -2.45101,-2.380688 0,-1.392607 1.09735,-2.380686 2.45101,-2.380689 1.36367,-3e-6 2.45102,1.007526 2.45102,2.380689 z"
       sodipodi:nodetypes="sssss"
       inkscape:label="period"
       transform="matrix(0.92524678,0,0,0.95257972,-252.08521,-4.4403101)" /><g
       id="g1174"
       transform="matrix(0.92524679,0,0,0.95257972,-252.08522,-4.4403102)"
       style="display:inline;stroke-width:0.5;stroke-dasharray:none"
       inkscape:label="colon"><path
         id="path4357"
         style="display:inline;fill:none;stroke:#000000;stroke-width:0.499999;stroke-linecap:round;paint-order:stroke fill markers"
         d="m 232.36939,-6.3051088 c 0,1.326572 -0.95972,2.267795 -2.2678,2.267795 -1.31731,0 -2.26779,-1.015328 -2.26779,-2.267795 0,-1.326569 1.01532,-2.267793 2.26779,-2.267796 1.26173,-3e-6 2.2678,0.959749 2.2678,2.267796 z"
         sodipodi:nodetypes="sssss"
         transform="matrix(1.0807927,0,0,1.0497809,272.45187,4.6613517)"
         inkscape:label="colbot" /><path
         id="path4354"
         style="display:inline;stroke-width:0.499999;stroke-dasharray:none;fill:none;stroke:#000000;stroke-linecap:round;paint-order:stroke fill markers"
         d="m 232.36939,-21.427284 c 0,1.326572 -0.95972,2.267795 -2.2678,2.267795 -1.31731,0 -2.26779,-1.015328 -2.26779,-2.267795 0,-1.326569 1.01532,-2.267793 2.26779,-2.267796 1.26173,-3e-6 2.2678,0.959749 2.2678,2.267796 z"
         sodipodi:nodetypes="sssss"
         transform="matrix(1.0807927,0,0,1.0497809,272.45187,4.6613517)"
         inkscape:label="coltop" /></g></g></svg>
