<?xml version="1.0" encoding="UTF-8" standalone="no"?>
<!-- Created with Inkscape (http://www.inkscape.org/) -->

<svg
   sodipodi:docname="Nixie.svg"
   inkscape:version="1.2.1 (9c6d41e410, 2022-07-14)"
   xml:space="preserve"
   id="svg5"
   version="1.1"
   viewBox="0 0 26.458333 52.916666"
   height="200"
   width="100"
   xmlns:inkscape="http://www.inkscape.org/namespaces/inkscape"
   xmlns:sodipodi="http://sodipodi.sourceforge.net/DTD/sodipodi-0.dtd"
   xmlns="http://www.w3.org/2000/svg"
   xmlns:svg="http://www.w3.org/2000/svg"><sodipodi:namedview
     id="namedview7"
     pagecolor="#505050"
     bordercolor="#eeeeee"
     borderopacity="1"
     inkscape:showpageshadow="0"
     inkscape:pageopacity="0"
     inkscape:pagecheckerboard="0"
     inkscape:deskcolor="#505050"
     inkscape:document-units="mm"
     showgrid="false"
     inkscape:zoom="3.5705387"
     inkscape:cx="39.769909"
     inkscape:cy="96.904145"
     inkscape:window-width="2560"
     inkscape:window-height="1387"
     inkscape:window-x="1912"
     inkscape:window-y="892"
     inkscape:window-maximized="1"
     inkscape:current-layer="g1174" /><defs
     id="defs2" /><g
     inkscape:label="Layer 1"
     inkscape:groupmode="layer"
     id="layer1"
     transform="translate(-216.87285,42.887155)"
     style="display:inline"><path
       style="display:inline;fill:none;stroke:#000000;stroke-width:0.469407;stroke-linecap:round;stroke-dasharray:none;paint-order:stroke fill markers"
       d="m 242.298,9.78819 h -24.393 l 1.048,-4.05184 2.763,-4.5458 8.385,-10.09402 8.386,-10.63153 2.763,-5.2178 1.048,-4.9925 -0.925,-5.352 -2.438,-3.8669 -3.448,-2.3945 -3.953,-0.9348 -3.952,0.5123 -3.448,1.9467 -2.439,3.3685 -0.925,4.7777"
       id="path968"
       sodipodi:nodetypes="ccsc"
       inkscape:label="2" /><path
       style="display:inline;fill:none;stroke:#000000;stroke-width:0.469407;stroke-linecap:round;stroke-dasharray:none;paint-order:stroke fill markers"
       d="m 220.491,-42.2997 h 21.521 l -16.96,22.0829 5.973,0.548 4.603,1.5203 3.342,2.3067 2.193,2.9075 1.151,3.32247 0.22,3.55177 -0.601,3.5953 -1.313,3.453108 -1.916,3.125182 -2.408,2.61151 -2.791,1.91211 -3.065,1.02697 -3.228,-0.04391 -3.283,-1.30051 -3.226,-2.74286 -3.062,-4.37094"
       id="path1066"
       sodipodi:nodetypes="cccc"
       inkscape:label="3" /><path
       style="display:inline;fill:none;stroke:#000000;stroke-width:0.469407;stroke-linecap:round;stroke-dasharray:none;paint-order:stroke fill markers"
       d="m 238.766,-42.3117 h -15.323 l -1.916,19.3409 4.92,-2.1766 4.208,-0.4201 3.513,1.0833 2.835,2.3336 2.176,3.3309 1.533,4.0751 0.907,4.5662 0.298,4.80415 -0.804,5.225561 -2.163,4.358829 -3.15,3.2521 -3.765,1.90535 -4.006,0.3186 -1.977,-0.51073 -1.898,-0.99742 -1.773,-1.51411 -1.599,-2.06081 -1.381,-2.63749 -1.115,-3.24419"
       id="path1070"
       sodipodi:nodetypes="cccsc"
       inkscape:label="5" /><g
       id="g1132"
       transform="matrix(0.93661835,0,0,0.96428721,129.81103,-183.57308)"
       style="display:inline;stroke-width:0.493929;stroke-dasharray:none"
       inkscape:label="6"><path
         id="path1124"
         style="fill:none;stroke:#000000;stroke-linecap:round;paint-order:stroke fill markers"
         d="m 119.971,185.773 -0.982,5.643 -2.795,4.784 -4.183,3.197 -4.934,1.122 -5.019,-1.158 -4.0981,-3.161 -2.7633,-4.687 -1.0132,-5.74 1.0132,-5.74 2.7633,-4.687 4.0981,-3.16 5.019,-1.159 4.934,1.122 4.183,3.197 2.795,4.784 0.982,5.643 v 0" /><path
         style="fill:none;stroke:#000000;stroke-width:0.493929;stroke-linecap:round;stroke-dasharray:none;paint-order:stroke fill markers"
         d="m 109.597,146.499 -5.472,8.491 -4.9583,9.255 -3.5962,10.201 -1.3871,11.327"
         id="path1128"
         sodipodi:nodetypes="cc" /></g><g
       id="g1156"
       transform="matrix(0.94370315,0,0,0.9715813,7.9437381,-184.9009)"
       style="display:inline;stroke-width:0.490221;stroke-dasharray:none"
       inkscape:label="8"><path
         id="path1142"
         style="fill:none;stroke:#000000;stroke-linecap:round;paint-order:stroke fill markers"
         d="m 246.674,157.911 -0.885,4.337 -2.414,3.542 -3.58,2.388 -4.384,0.876 -4.385,-0.876 -3.58,-2.388 -2.414,-3.542 -0.885,-4.337 0.885,-4.337 2.414,-3.542 3.58,-2.388 4.385,-0.876 4.384,0.876 3.58,2.388 2.414,3.542 0.885,4.337 v 0" /><path
         id="ellipse1144"
         style="fill:none;stroke:#000000;stroke-linecap:round;paint-order:stroke fill markers"
         d="m 248.906,184.689 -1.061,6.078 -2.892,4.964 -4.29,3.347 -5.252,1.227 -5.253,-1.227 -4.29,-3.347 -2.892,-4.964 -1.06,-6.078 1.027,-5.976 2.925,-5.066 4.378,-3.386 5.165,-1.188 5.164,1.188 4.378,3.386 2.925,5.066 1.028,5.976 v 0" /></g><g
       id="g1138"
       transform="matrix(-0.93672356,0,0,-0.96439551,330.40305,151.07141)"
       style="display:inline;stroke-width:0.493874;stroke-dasharray:none"
       inkscape:label="9"><path
         id="ellipse1134"
         style="fill:none;stroke:#000000;stroke-linecap:round;paint-order:stroke fill markers"
         d="m 119.971,185.773 -0.982,5.643 -2.795,4.784 -4.183,3.197 -4.934,1.122 -5.019,-1.158 -4.0981,-3.161 -2.7633,-4.687 -1.0132,-5.74 1.0132,-5.74 2.7633,-4.687 4.0981,-3.16 5.019,-1.159 4.934,1.122 4.183,3.197 2.795,4.784 0.982,5.643 v 0" /><path
         style="fill:none;stroke:#000000;stroke-width:0.493874;stroke-linecap:round;stroke-dasharray:none;paint-order:stroke fill markers"
         d="m 109.597,146.499 -5.472,8.491 -4.9583,9.255 -3.5962,10.201 -1.3871,11.327"
         id="path1136"
         sodipodi:nodetypes="cc" /></g><g
       id="g1164"
       transform="matrix(0.92524679,0,0,0.95257972,-253.32202,3.2470447)"
       style="display:inline;stroke-width:0.5;stroke-dasharray:none"
       inkscape:label="plus"><path
         style="fill:none;stroke:#000000;stroke-width:0.5;stroke-linecap:round;stroke-dasharray:none;paint-order:stroke fill markers"
         d="M 522.48052,-30.776454 V -5.1538835"
         id="path1146" /><path
         style="fill:none;stroke:#000000;stroke-width:0.5;stroke-linecap:round;stroke-dasharray:none;paint-order:stroke fill markers"
         d="M 535.2918,-17.965174 H 509.66923"
         id="path1148" /></g><path
       style="display:inline;fill:none;stroke:#000000;stroke-width:0.469407;stroke-linecap:round;stroke-dasharray:none;paint-order:stroke fill markers"
       d="M 240.341,-13.866215 H 219.8618"
       id="path1150"
       inkscape:label="hyphen" /><path
       style="display:inline;fill:none;stroke:#000000;stroke-width:0.469407;stroke-linecap:round;stroke-dasharray:none;paint-order:stroke fill markers"
       d="M 220.12874,9.7881947 240.07406,-42.308659"
       id="path1152"
       inkscape:label="slash" /><path
       id="path1166"
       style="display:inline;fill:none;stroke:#000000;stroke-width:0.469407;stroke-linecap:round;paint-order:stroke fill markers"
       inkscape:label="period"
       d="M 232.404 7.43576 L 231.73 9.11222 L 230.101 9.80664 L 228.473 9.11222 L 227.799 7.43576 L 228.473 5.7593 L 230.101 5.06488 L 231.73 5.7593 L 232.404 7.43576 L 232.404 7.43576" /><g
       id="g1174"
       transform="matrix(0.92524679,0,0,0.95257972,-252.08522,-4.4403102)"
       style="display:inline;stroke-width:0.5;stroke-dasharray:none"
       inkscape:label="colon"><path
         id="circle1168"
         style="fill:none;stroke:#000000;stroke-linecap:round;paint-order:stroke fill markers"
         d="M 523.633 -1.95763 L 522.904 -0.197713 L 521.144 0.531269 L 519.384 -0.197713 L 518.655 -1.95763 L 519.384 -3.71755 L 521.144 -4.44653 L 522.904 -3.71755 L 523.633 -1.95763 L 523.633 -1.95763" /><path
         id="circle1170"
         style="fill:none;stroke:#000000;stroke-linecap:round;paint-order:stroke fill markers"
         d="M 523.633 -17.8326 L 522.904 -16.0727 L 521.144 -15.3437 L 519.384 -16.0727 L 518.655 -17.8326 L 519.384 -19.5925 L 521.144 -20.3215 L 522.904 -19.5925 L 523.633 -17.8326 L 523.633 -17.8326" /></g></g></svg>
